<mxfile host="65bd71144e">
    <diagram id="6gfDzhR8UG0JMTbnyaS-" name="Page-1">
        <mxGraphModel dx="1569" dy="606" grid="1" gridSize="10" guides="1" tooltips="1" connect="1" arrows="1" fold="1" page="1" pageScale="1" pageWidth="850" pageHeight="1100" math="0" shadow="0">
            <root>
                <mxCell id="0"/>
                <mxCell id="1" parent="0"/>
                <mxCell id="2" style="edgeStyle=none;html=1;exitX=0.25;exitY=0;exitDx=0;exitDy=0;entryX=0.5;entryY=1;entryDx=0;entryDy=0;strokeColor=#5C068C;endArrow=none;endFill=0;" parent="1" source="5" target="13" edge="1">
                    <mxGeometry relative="1" as="geometry"/>
                </mxCell>
                <mxCell id="3" style="edgeStyle=none;html=1;exitX=0.5;exitY=0;exitDx=0;exitDy=0;entryX=0.5;entryY=1;entryDx=0;entryDy=0;strokeColor=#5C068C;endArrow=none;endFill=0;" parent="1" source="5" target="14" edge="1">
                    <mxGeometry relative="1" as="geometry"/>
                </mxCell>
                <mxCell id="4" style="edgeStyle=none;html=1;exitX=0.75;exitY=0;exitDx=0;exitDy=0;entryX=0.5;entryY=1;entryDx=0;entryDy=0;strokeColor=#5C068C;endArrow=none;endFill=0;" parent="1" source="5" target="15" edge="1">
                    <mxGeometry relative="1" as="geometry"/>
                </mxCell>
                <mxCell id="19" style="edgeStyle=none;html=1;exitX=0;exitY=0.5;exitDx=0;exitDy=0;entryX=1;entryY=0.5;entryDx=0;entryDy=0;endArrow=none;endFill=0;strokeColor=#5C068C;" parent="1" source="5" target="17" edge="1">
                    <mxGeometry relative="1" as="geometry"/>
                </mxCell>
                <mxCell id="5" value="Departamento" style="rounded=0;whiteSpace=wrap;html=1;fillColor=#e1d5e7;strokeColor=#9673a6;" parent="1" vertex="1">
                    <mxGeometry x="440" y="200" width="120" height="40" as="geometry"/>
                </mxCell>
                <mxCell id="6" style="edgeStyle=none;html=1;exitX=0.25;exitY=0;exitDx=0;exitDy=0;entryX=0.5;entryY=1;entryDx=0;entryDy=0;strokeColor=#5C068C;endArrow=none;endFill=0;" parent="1" source="16" target="10" edge="1">
                    <mxGeometry relative="1" as="geometry">
                        <mxPoint x="30" y="200" as="sourcePoint"/>
                    </mxGeometry>
                </mxCell>
                <mxCell id="7" style="edgeStyle=none;html=1;exitX=0.5;exitY=0;exitDx=0;exitDy=0;entryX=0.5;entryY=1;entryDx=0;entryDy=0;strokeColor=#5C068C;endArrow=none;endFill=0;" parent="1" source="16" target="11" edge="1">
                    <mxGeometry relative="1" as="geometry">
                        <mxPoint x="60" y="200" as="sourcePoint"/>
                    </mxGeometry>
                </mxCell>
                <mxCell id="8" style="edgeStyle=none;html=1;entryX=0;entryY=1;entryDx=0;entryDy=0;strokeColor=#5C068C;endArrow=none;endFill=0;" parent="1" target="12" edge="1">
                    <mxGeometry relative="1" as="geometry">
                        <mxPoint x="90" y="200" as="sourcePoint"/>
                        <mxPoint x="140" y="160" as="targetPoint"/>
                    </mxGeometry>
                </mxCell>
                <mxCell id="10" value="NIF" style="ellipse;whiteSpace=wrap;html=1;aspect=fixed;fillColor=#5C068C;fontColor=#000000;strokeColor=#3700CC;verticalAlign=bottom;labelPosition=center;verticalLabelPosition=top;align=center;" parent="1" vertex="1">
                    <mxGeometry x="-40" y="120" width="40" height="40" as="geometry"/>
                </mxCell>
                <mxCell id="11" value="Nombre" style="ellipse;whiteSpace=wrap;html=1;aspect=fixed;fillColor=#e1d5e7;strokeColor=#9673a6;verticalAlign=bottom;labelPosition=center;verticalLabelPosition=top;align=center;" parent="1" vertex="1">
                    <mxGeometry x="40" y="120" width="40" height="40" as="geometry"/>
                </mxCell>
                <mxCell id="12" value="Fecha nacimiento" style="ellipse;whiteSpace=wrap;html=1;aspect=fixed;fillColor=#e1d5e7;strokeColor=#9673a6;verticalAlign=bottom;labelPosition=center;verticalLabelPosition=top;align=center;" parent="1" vertex="1">
                    <mxGeometry x="120" y="120" width="40" height="40" as="geometry"/>
                </mxCell>
                <mxCell id="13" value="CÃ³digo departamento" style="ellipse;whiteSpace=wrap;html=1;aspect=fixed;fillColor=#5C068C;fontColor=#000000;strokeColor=#3700CC;verticalAlign=bottom;labelPosition=center;verticalLabelPosition=top;align=center;" parent="1" vertex="1">
                    <mxGeometry x="400" y="120" width="40" height="40" as="geometry"/>
                </mxCell>
                <mxCell id="14" value="Nombre" style="ellipse;whiteSpace=wrap;html=1;aspect=fixed;fillColor=#e1d5e7;strokeColor=#9673a6;verticalAlign=bottom;labelPosition=center;verticalLabelPosition=top;align=center;" parent="1" vertex="1">
                    <mxGeometry x="480" y="120" width="40" height="40" as="geometry"/>
                </mxCell>
                <mxCell id="15" value="Presupuesto" style="ellipse;whiteSpace=wrap;html=1;aspect=fixed;fillColor=#e1d5e7;strokeColor=#9673a6;verticalAlign=bottom;labelPosition=center;verticalLabelPosition=top;align=center;" parent="1" vertex="1">
                    <mxGeometry x="560" y="120" width="40" height="40" as="geometry"/>
                </mxCell>
                <mxCell id="16" value="Empleado" style="rounded=0;whiteSpace=wrap;html=1;fillColor=#e1d5e7;strokeColor=#9673a6;" parent="1" vertex="1">
                    <mxGeometry y="200" width="120" height="40" as="geometry"/>
                </mxCell>
                <mxCell id="20" style="edgeStyle=none;html=1;exitX=0;exitY=0.5;exitDx=0;exitDy=0;entryX=1;entryY=0.5;entryDx=0;entryDy=0;endArrow=none;endFill=0;strokeColor=#5C068C;" parent="1" source="17" target="16" edge="1">
                    <mxGeometry relative="1" as="geometry"/>
                </mxCell>
                <mxCell id="17" value="trabaja" style="rhombus;whiteSpace=wrap;html=1;fillColor=#fff2cc;strokeColor=#d6b656;" parent="1" vertex="1">
                    <mxGeometry x="240" y="180" width="80" height="80" as="geometry"/>
                </mxCell>
                <mxCell id="21" value="tiene" style="text;html=1;strokeColor=none;fillColor=none;align=center;verticalAlign=middle;whiteSpace=wrap;rounded=0;" parent="1" vertex="1">
                    <mxGeometry x="120" y="190" width="120" height="30" as="geometry"/>
                </mxCell>
                <mxCell id="22" value="trabaja en" style="text;html=1;strokeColor=none;fillColor=none;align=center;verticalAlign=middle;whiteSpace=wrap;rounded=0;" parent="1" vertex="1">
                    <mxGeometry x="320" y="190" width="120" height="30" as="geometry"/>
                </mxCell>
                <mxCell id="23" value="N:M" style="text;html=1;strokeColor=none;fillColor=none;align=center;verticalAlign=middle;whiteSpace=wrap;rounded=0;" parent="1" vertex="1">
                    <mxGeometry x="220" y="150" width="120" height="30" as="geometry"/>
                </mxCell>
            </root>
        </mxGraphModel>
    </diagram>
</mxfile>